<svg xmlns="http://www.w3.org/2000/svg" xmlns:xlink="http://www.w3.org/1999/xlink" width="3000" viewBox="0 0 2250 749.999995" height="1000" preserveAspectRatio="xMidYMid meet"><defs><g></g></defs><path stroke-linecap="butt" transform="matrix(0.75, 0, 0, 0.75, 34.42193, 650.810268)" fill="none" stroke-linejoin="miter" d="M -0.00007359 5.997768 L 1112.895814 5.997768 " stroke="#69696a" stroke-width="12" stroke-opacity="1" stroke-miterlimit="4"></path><g fill="#69696a" fill-opacity="1"><g transform="translate(29.025125, 475.827496)"><g><path d="M 503.515625 -442.328125 L 503.515625 -370.078125 L 288.25 -370.078125 L 288.25 0 L 213.046875 0 L 213.046875 -370.078125 L -2.21875 -370.078125 L -2.21875 -442.328125 Z M 503.515625 -442.328125 "></path></g></g></g><g fill="#69696a" fill-opacity="1"><g transform="translate(472.075342, 475.827496)"><g><path d="M 488.03125 0 L 444.53125 -78.875 L 133.4375 -78.875 L 89.9375 0 L 3.6875 0 L 246.21875 -440.109375 L 244.75 -442.328125 L 333.21875 -442.328125 L 332.484375 -440.109375 L 574.28125 0 Z M 173.984375 -152.59375 L 403.984375 -152.59375 L 288.984375 -361.96875 Z M 173.984375 -152.59375 "></path></g></g></g><g fill="#69696a" fill-opacity="1"><g transform="translate(992.530685, 475.827496)"><g><path d="M 358.28125 7.375 C 301.269531 7.375 253.597656 1.476562 215.265625 -10.3125 C 176.929688 -22.113281 146.335938 -38.210938 123.484375 -58.609375 C 100.628906 -79.003906 84.160156 -101.859375 74.078125 -127.171875 C 64.003906 -152.484375 58.96875 -178.40625 58.96875 -204.9375 L 58.96875 -237.375 C 58.96875 -264.894531 64.003906 -291.429688 74.078125 -316.984375 C 84.160156 -342.546875 100.628906 -365.398438 123.484375 -385.546875 C 146.335938 -405.703125 176.929688 -421.800781 215.265625 -433.84375 C 253.597656 -445.882812 301.269531 -451.90625 358.28125 -451.90625 C 414.3125 -451.90625 461.492188 -446.128906 499.828125 -434.578125 C 538.160156 -423.023438 568.875 -407.296875 591.96875 -387.390625 C 615.070312 -367.492188 631.78125 -344.890625 642.09375 -319.578125 C 652.414062 -294.265625 657.578125 -267.847656 657.578125 -240.328125 L 657.578125 -207.890625 C 657.578125 -181.835938 652.785156 -156.035156 643.203125 -130.484375 C 633.617188 -104.929688 617.523438 -81.707031 594.921875 -60.8125 C 572.316406 -39.925781 541.722656 -23.335938 503.140625 -11.046875 C 464.554688 1.234375 416.269531 7.375 358.28125 7.375 Z M 358.28125 -66.34375 C 413.320312 -66.34375 457.0625 -72.117188 489.5 -83.671875 C 521.9375 -95.222656 545.28125 -110.945312 559.53125 -130.84375 C 573.789062 -150.75 580.921875 -172.992188 580.921875 -197.578125 L 580.921875 -230 C 580.921875 -257.53125 573.175781 -282.472656 557.6875 -304.828125 C 542.207031 -327.191406 518.003906 -345.007812 485.078125 -358.28125 C 452.148438 -371.550781 409.882812 -378.1875 358.28125 -378.1875 C 305.195312 -378.1875 262.3125 -372.039062 229.625 -359.75 C 196.945312 -347.46875 173.113281 -330.757812 158.125 -309.625 C 143.132812 -288.488281 135.640625 -264.40625 135.640625 -237.375 L 135.640625 -204.9375 C 135.640625 -178.894531 143.132812 -155.425781 158.125 -134.53125 C 173.113281 -113.644531 196.945312 -97.054688 229.625 -84.765625 C 262.3125 -72.484375 305.195312 -66.34375 358.28125 -66.34375 Z M 358.28125 -66.34375 "></path></g></g></g><g fill="#69696a" fill-opacity="1"><g transform="translate(924.755291, 718.23815)"><g><path d="M 219.25 -100.921875 C 220.863281 -100.492188 220.835938 -98.207031 219.171875 -94.0625 C 217.503906 -89.925781 214.09375 -84.632812 208.9375 -78.1875 C 203.019531 -71.414062 193.207031 -63.757812 179.5 -55.21875 C 165.800781 -46.675781 149.953125 -38.859375 131.953125 -31.765625 C 113.953125 -24.671875 95.84375 -19.644531 77.625 -16.6875 C 59.40625 -13.726562 42.773438 -14.398438 27.734375 -18.703125 C 11.828125 -23.640625 2.691406 -34.007812 0.328125 -49.8125 C -0.859375 -58.84375 -0.269531 -67.710938 2.09375 -76.421875 C 5 -85.441406 9.566406 -93.390625 15.796875 -100.265625 C 22.035156 -107.148438 29.773438 -112.367188 39.015625 -115.921875 C 47.722656 -118.921875 56.75 -120.070312 66.09375 -119.375 C 75.445312 -118.675781 83.078125 -115.859375 88.984375 -110.921875 C 89.953125 -110.160156 90.4375 -109.082031 90.4375 -107.6875 C 90.4375 -106.289062 90.222656 -104.894531 89.796875 -103.5 C 88.617188 -99.414062 86.65625 -97.507812 83.90625 -97.78125 C 81.164062 -98.050781 78.023438 -99.097656 74.484375 -100.921875 C 71.898438 -102.316406 69.078125 -103.550781 66.015625 -104.625 C 62.953125 -105.695312 59.753906 -106.019531 56.421875 -105.59375 C 47.179688 -104.195312 39.5 -99.363281 33.375 -91.09375 C 28.425781 -84.207031 25.066406 -76.625 23.296875 -68.34375 C 21.523438 -60.070312 22.25 -52.609375 25.46875 -45.953125 C 29.988281 -37.453125 37.914062 -32.367188 49.25 -30.703125 C 60.59375 -29.046875 73.648438 -29.878906 88.421875 -33.203125 C 103.203125 -36.535156 118.171875 -41.316406 133.328125 -47.546875 C 148.484375 -53.785156 162.375 -60.398438 175 -67.390625 C 187.625 -74.378906 197.378906 -80.828125 204.265625 -86.734375 C 211.359375 -92.859375 215.492188 -96.890625 216.671875 -98.828125 C 217.421875 -99.578125 217.957031 -100.113281 218.28125 -100.4375 C 218.601562 -100.757812 218.925781 -100.921875 219.25 -100.921875 Z M 219.25 -100.921875 "></path></g></g></g><g fill="#69696a" fill-opacity="1"><g transform="translate(1151.182821, 718.23815)"><g><path d="M 41.4375 -118.015625 C 55.40625 -118.660156 65.023438 -112.15625 70.296875 -98.5 C 74.054688 -88.507812 75.101562 -77.84375 73.4375 -66.5 C 71.769531 -55.164062 67.976562 -45.734375 62.0625 -38.203125 C 56.375 -31.328125 49.441406 -26.894531 41.265625 -24.90625 C 33.097656 -22.914062 25.117188 -23.5625 17.328125 -26.84375 C 9.535156 -30.125 3.382812 -36.597656 -1.125 -46.265625 C -4.675781 -54.867188 -5.859375 -63.519531 -4.671875 -72.21875 C -3.703125 -79.53125 -1.660156 -86.625 1.453125 -93.5 C 4.992188 -101.988281 10.257812 -108.140625 17.25 -111.953125 C 24.238281 -115.773438 32.300781 -117.796875 41.4375 -118.015625 Z M 35.140625 -36.4375 C 41.054688 -39.976562 45.300781 -45.109375 47.875 -51.828125 C 50.457031 -58.546875 51.882812 -65.75 52.15625 -73.4375 C 52.425781 -81.125 51.804688 -88.296875 50.296875 -94.953125 C 48.253906 -104.203125 45.515625 -108.742188 42.078125 -108.578125 C 38.640625 -108.421875 35.09375 -105.332031 31.4375 -99.3125 C 27.78125 -93.289062 24.582031 -86.035156 21.84375 -77.546875 C 19.101562 -69.054688 17.4375 -60.914062 16.84375 -53.125 C 16.25 -45.332031 17.320312 -39.660156 20.0625 -36.109375 C 22.8125 -32.566406 27.835938 -32.675781 35.140625 -36.4375 Z M 35.140625 -36.4375 "></path></g></g></g><g fill="#69696a" fill-opacity="1"><g transform="translate(1268.464516, 718.23815)"><g><path d="M 47.71875 -58.6875 C 51.375 -53.957031 53.738281 -49.066406 54.8125 -44.015625 C 55.882812 -38.960938 56.285156 -33.476562 56.015625 -27.5625 C 55.753906 -21.65625 53.847656 -16.390625 50.296875 -11.765625 C 46.753906 -7.148438 40.84375 -4.359375 32.5625 -3.390625 C 24.289062 -2.742188 16.898438 -4.003906 10.390625 -7.171875 C 3.890625 -10.347656 -0.191406 -14.941406 -1.859375 -20.953125 C -3.523438 -26.972656 -1.507812 -34.015625 4.1875 -42.078125 C 7.945312 -46.585938 12.460938 -50.507812 17.734375 -53.84375 C 19.554688 -55.03125 21.4375 -56.320312 23.375 -57.71875 C 17.03125 -64.59375 11.007812 -71.628906 5.3125 -78.828125 C -0.375 -86.035156 -4.023438 -92.488281 -5.640625 -98.1875 C -7.359375 -104.738281 -6.253906 -110.914062 -2.328125 -116.71875 C 1.585938 -122.519531 8.382812 -125.90625 18.0625 -126.875 C 22.789062 -127.300781 27.222656 -127.054688 31.359375 -126.140625 C 35.492188 -125.234375 39.335938 -123.222656 42.890625 -120.109375 C 43.640625 -119.359375 44.175781 -118.523438 44.5 -117.609375 C 44.820312 -116.691406 44.660156 -115.535156 44.015625 -114.140625 C 42.828125 -111.992188 41.050781 -110.921875 38.6875 -110.921875 C 36.96875 -110.921875 35.300781 -111.132812 33.6875 -111.5625 C 31.96875 -112.3125 30.410156 -113.007812 29.015625 -113.65625 C 28.046875 -114.195312 27.132812 -114.679688 26.28125 -115.109375 C 23.164062 -116.285156 20.773438 -116.125 19.109375 -114.625 C 17.441406 -113.125 16.609375 -110.8125 16.609375 -107.6875 C 16.816406 -102.207031 19.070312 -96.347656 23.375 -90.109375 C 27.675781 -83.878906 31.921875 -78.132812 36.109375 -72.875 C 37.828125 -71.039062 39.28125 -69.265625 40.46875 -67.546875 C 41.644531 -66.367188 44.0625 -63.414062 47.71875 -58.6875 Z M 25.796875 -15.484375 C 28.910156 -15.691406 30.953125 -17.40625 31.921875 -20.625 C 32.890625 -23.851562 33.238281 -27.398438 32.96875 -31.265625 C 32.695312 -35.140625 32.457031 -38.046875 32.25 -39.984375 C 31.8125 -41.160156 31.054688 -41.910156 29.984375 -42.234375 C 28.910156 -42.554688 27.890625 -42.503906 26.921875 -42.078125 C 23.378906 -39.285156 20.773438 -35.738281 19.109375 -31.4375 C 17.441406 -27.132812 17.570312 -23.375 19.5 -20.15625 C 20.144531 -18.96875 21.003906 -17.941406 22.078125 -17.078125 C 23.160156 -16.222656 24.398438 -15.691406 25.796875 -15.484375 Z M 25.796875 -15.484375 "></path></g></g></g><g fill="#69696a" fill-opacity="1"><g transform="translate(1369.785471, 718.23815)"><g><path d="M 196.515625 -60.140625 C 196.515625 -60.140625 196.625 -60.242188 196.84375 -60.453125 C 197.8125 -61.421875 200.125 -63.570312 203.78125 -66.90625 C 207.4375 -70.238281 211.222656 -73.378906 215.140625 -76.328125 C 219.066406 -79.285156 221.96875 -80.816406 223.84375 -80.921875 C 225.726562 -81.035156 225.21875 -78.351562 222.3125 -72.875 C 222.101562 -72.226562 221.59375 -71.421875 220.78125 -70.453125 C 219.976562 -69.484375 219.203125 -68.410156 218.453125 -67.234375 C 218.234375 -67.015625 218.015625 -66.796875 217.796875 -66.578125 C 201.035156 -49.054688 187.976562 -36.800781 178.625 -29.8125 C 169.28125 -22.832031 160.09375 -19.71875 151.0625 -20.46875 C 141.601562 -21.4375 135.234375 -25.816406 131.953125 -33.609375 C 128.671875 -41.398438 127.242188 -51.019531 127.671875 -62.46875 C 128.109375 -73.914062 129.078125 -85.441406 130.578125 -97.046875 C 132.191406 -109.304688 133 -119.707031 133 -128.25 C 133 -136.789062 130.632812 -141.65625 125.90625 -142.84375 C 122.144531 -143.050781 118.0625 -138.773438 113.65625 -130.015625 C 109.25 -121.253906 104.976562 -110.851562 100.84375 -98.8125 C 96.707031 -86.78125 93.238281 -75.929688 90.4375 -66.265625 C 87.863281 -58.203125 86.09375 -52.878906 85.125 -50.296875 C 83.507812 -46.429688 80.847656 -43.988281 77.140625 -42.96875 C 73.429688 -41.945312 69.695312 -42.238281 65.9375 -43.84375 C 63.351562 -45.03125 61.957031 -46.914062 61.75 -49.5 C 61 -55.1875 60.726562 -61.097656 60.9375 -67.234375 C 60.9375 -71.316406 60.832031 -75.238281 60.625 -79 C 60.625 -79.96875 60.625 -81.148438 60.625 -82.546875 C 60.832031 -84.367188 60.882812 -86.25 60.78125 -88.1875 C 60.675781 -90.125 60.460938 -91.789062 60.140625 -93.1875 C 59.816406 -94.582031 59.171875 -95.382812 58.203125 -95.59375 C 56.265625 -95.59375 53.953125 -93.363281 51.265625 -88.90625 C 48.578125 -84.445312 45.863281 -78.96875 43.125 -72.46875 C 40.382812 -65.96875 37.941406 -60.082031 35.796875 -54.8125 C 34.179688 -50.300781 33 -47.238281 32.25 -45.625 C 31.8125 -44.875 31.488281 -44.28125 31.28125 -43.84375 C 29.125 -39.332031 26.863281 -34.984375 24.5 -30.796875 C 22.570312 -27.242188 19.617188 -25.09375 15.640625 -24.34375 C 6.609375 -23.164062 1.769531 -26.710938 1.125 -34.984375 C 0.59375 -56.265625 0.109375 -77.648438 -0.328125 -99.140625 C -0.109375 -103.234375 1.664062 -105.867188 5 -107.046875 C 8.332031 -108.234375 11.769531 -108.234375 15.3125 -107.046875 C 18.863281 -105.867188 20.851562 -103.71875 21.28125 -100.59375 C 21.5 -99.195312 21.609375 -97.640625 21.609375 -95.921875 C 22.566406 -86.785156 23.691406 -82.21875 24.984375 -82.21875 C 26.273438 -82.21875 29.285156 -86.195312 34.015625 -94.15625 C 36.378906 -98.238281 38.851562 -102.265625 41.4375 -106.234375 C 44.550781 -111.722656 48.582031 -116.453125 53.53125 -120.421875 C 59.007812 -123.972656 64.21875 -125.050781 69.15625 -123.65625 C 74.101562 -122.257812 78.03125 -118.601562 80.9375 -112.6875 C 82.757812 -108.925781 84.367188 -107.367188 85.765625 -108.015625 C 85.765625 -108.015625 85.925781 -108.125 86.25 -108.34375 C 86.675781 -109.84375 88.554688 -114.003906 91.890625 -120.828125 C 95.222656 -127.648438 99.65625 -135.144531 105.1875 -143.3125 C 110.726562 -151.488281 116.9375 -158.15625 123.8125 -163.3125 C 128.539062 -166.644531 133.617188 -168.5 139.046875 -168.875 C 144.472656 -169.25 149.253906 -167.769531 153.390625 -164.4375 C 157.535156 -161.101562 159.984375 -155.300781 160.734375 -147.03125 C 161.160156 -140.476562 160.726562 -131.15625 159.4375 -119.0625 C 158.15625 -106.96875 156.648438 -95.117188 154.921875 -83.515625 C 153.523438 -72.660156 152.613281 -64.273438 152.1875 -58.359375 C 151.644531 -46.109375 153.738281 -39.441406 158.46875 -38.359375 C 163.195312 -37.285156 169.109375 -39.164062 176.203125 -44 C 183.296875 -48.84375 190.066406 -54.222656 196.515625 -60.140625 Z M 196.515625 -60.140625 "></path></g></g></g><g fill="#69696a" fill-opacity="1"><g transform="translate(1609.433008, 718.23815)"><g><path d="M 143.484375 -77.21875 C 145.628906 -78.40625 147.773438 -79.289062 149.921875 -79.875 C 152.078125 -80.46875 153.445312 -80.414062 154.03125 -79.71875 C 154.625 -79.019531 153.738281 -77.222656 151.375 -74.328125 C 143.75 -65.828125 134.800781 -58.082031 124.53125 -51.09375 C 114.269531 -44.113281 103.820312 -38.148438 93.1875 -33.203125 C 84.695312 -29.441406 75.722656 -26.429688 66.265625 -24.171875 C 56.804688 -21.921875 47.453125 -21.441406 38.203125 -22.734375 C 28.960938 -24.023438 20.582031 -28.109375 13.0625 -34.984375 C 4.03125 -44.015625 -0.882812 -55.488281 -1.6875 -69.40625 C -2.5 -83.320312 0.75 -95.007812 8.0625 -104.46875 C 17.738281 -115.320312 29.960938 -122.304688 44.734375 -125.421875 C 59.515625 -128.546875 72.816406 -126.179688 84.640625 -118.328125 C 90.335938 -114.359375 92.644531 -109.710938 91.5625 -104.390625 C 90.488281 -99.066406 87.640625 -94.09375 83.015625 -89.46875 C 78.398438 -84.851562 73.242188 -81.363281 67.546875 -79 C 59.054688 -75.664062 51.453125 -74.992188 44.734375 -76.984375 C 38.015625 -78.972656 32.773438 -81.632812 29.015625 -84.96875 C 26.328125 -84 24.660156 -80.234375 24.015625 -73.671875 C 22.296875 -61.316406 26.164062 -51.269531 35.625 -43.53125 C 43.46875 -37.613281 53.351562 -36 65.28125 -38.6875 C 77.21875 -41.375 89.445312 -46.101562 101.96875 -52.875 C 114.488281 -59.644531 125.640625 -66.09375 135.421875 -72.21875 C 138.429688 -73.832031 141.117188 -75.5 143.484375 -77.21875 Z M 65.125 -108.34375 C 63.726562 -110.269531 61.414062 -111.046875 58.1875 -110.671875 C 54.96875 -110.296875 51.664062 -109.300781 48.28125 -107.6875 C 44.894531 -106.082031 41.9375 -104.390625 39.40625 -102.609375 C 36.882812 -100.835938 35.785156 -99.578125 36.109375 -98.828125 C 36.109375 -98.398438 36.40625 -97.644531 37 -96.5625 C 37.59375 -95.488281 38.476562 -94.359375 39.65625 -93.171875 C 40.84375 -91.992188 42.425781 -91.160156 44.40625 -90.671875 C 46.394531 -90.191406 48.953125 -90.332031 52.078125 -91.09375 C 57.015625 -92.488281 60.476562 -94.3125 62.46875 -96.5625 C 64.457031 -98.820312 65.585938 -101.050781 65.859375 -103.25 C 66.128906 -105.457031 65.882812 -107.15625 65.125 -108.34375 Z M 65.125 -108.34375 "></path></g></g></g><g fill="#69696a" fill-opacity="1"><g transform="translate(1776.692829, 718.23815)"><g><path d="M 79.15625 -187.171875 C 80.550781 -186.953125 81.488281 -185.957031 81.96875 -184.1875 C 82.457031 -182.414062 82.457031 -180.5625 81.96875 -178.625 C 81.488281 -176.6875 80.550781 -175.71875 79.15625 -175.71875 L 27.078125 -176.203125 L 27.078125 -174.765625 C 26.867188 -167.128906 26.390625 -157.992188 25.640625 -147.359375 C 24.453125 -124.890625 23.859375 -102.101562 23.859375 -79 C 23.859375 -71.15625 24.394531 -60.328125 25.46875 -46.515625 C 26.539062 -32.703125 28.742188 -20.367188 32.078125 -9.515625 C 32.296875 -8.765625 32.992188 -7.421875 34.171875 -5.484375 C 35.578125 -3.117188 36.921875 -0.457031 38.203125 2.5 C 39.492188 5.457031 40.085938 7.875 39.984375 9.75 C 39.878906 11.632812 38.425781 12.203125 35.625 11.453125 C 26.382812 8.441406 19.34375 1.078125 14.5 -10.640625 C 9.664062 -22.359375 6.226562 -36.035156 4.1875 -51.671875 C 2.144531 -67.304688 1.070312 -82.566406 0.96875 -97.453125 C 0.863281 -112.335938 1.023438 -124.40625 1.453125 -133.65625 C 1.773438 -139.988281 2.039062 -146.328125 2.25 -152.671875 C 2.46875 -160.734375 2.6875 -168.6875 2.90625 -176.53125 L -36.4375 -177.171875 C -39.769531 -177.171875 -41.675781 -177.816406 -42.15625 -179.109375 C -42.644531 -180.398438 -42.296875 -181.71875 -41.109375 -183.0625 C -39.929688 -184.40625 -38.375 -185.1875 -36.4375 -185.40625 L 3.21875 -186.046875 L 5.796875 -224.09375 C 6.234375 -230.21875 6.71875 -236.453125 7.25 -242.796875 C 7.25 -246.128906 7.359375 -249.457031 7.578125 -252.78125 C 7.578125 -257.726562 8.757812 -262.351562 11.125 -266.65625 C 13.914062 -270.414062 17.351562 -271.8125 21.4375 -270.84375 C 24.988281 -269.664062 26.976562 -267.191406 27.40625 -263.421875 C 27.832031 -257.296875 28.046875 -251.117188 28.046875 -244.890625 C 28.046875 -241.335938 28.046875 -237.789062 28.046875 -234.25 C 28.046875 -230.269531 28.046875 -226.289062 28.046875 -222.3125 L 27.078125 -186.359375 Z M 79.15625 -187.171875 "></path></g></g></g><g fill="#69696a" fill-opacity="1"><g transform="translate(1865.922243, 718.23815)"><g><path d="M 15.640625 -14.34375 C 13.484375 -14.132812 11.113281 -15.640625 8.53125 -18.859375 C 5.957031 -22.085938 3.703125 -27.648438 1.765625 -35.546875 C -0.160156 -43.441406 -0.859375 -54.378906 -0.328125 -68.359375 C -0.328125 -69.753906 -0.328125 -71.523438 -0.328125 -73.671875 C -0.328125 -79.046875 -0.0859375 -85.359375 0.390625 -92.609375 C 0.878906 -99.867188 1.929688 -106.375 3.546875 -112.125 C 5.160156 -117.875 7.632812 -121.34375 10.96875 -122.53125 C 20.957031 -125.21875 26.382812 -121.671875 27.25 -111.890625 C 27.25 -108.878906 27.140625 -105.8125 26.921875 -102.6875 C 26.703125 -101.289062 26.59375 -99.789062 26.59375 -98.1875 C 26.382812 -93.664062 26.171875 -89.257812 25.953125 -84.96875 C 25.953125 -81.195312 25.789062 -77.539062 25.46875 -74 C 25.46875 -71.632812 25.46875 -68.195312 25.46875 -63.6875 C 25.789062 -57.34375 25.867188 -50.4375 25.703125 -42.96875 C 25.546875 -35.5 24.710938 -28.992188 23.203125 -23.453125 C 21.703125 -17.921875 19.179688 -14.882812 15.640625 -14.34375 Z M 25.15625 -155.890625 C 23.96875 -154.710938 22.328125 -153.960938 20.234375 -153.640625 C 18.140625 -153.316406 16.5 -153.476562 15.3125 -154.125 C 14.132812 -155.300781 13.351562 -156.613281 12.96875 -158.0625 C 12.59375 -159.519531 12.40625 -161.269531 12.40625 -163.3125 C 12.625 -163.851562 12.734375 -164.335938 12.734375 -164.765625 C 12.953125 -166.703125 13.4375 -168.582031 14.1875 -170.40625 C 16.332031 -175.882812 20.6875 -178.25 27.25 -177.5 C 29.613281 -177.28125 31.382812 -176.335938 32.5625 -174.671875 C 33.75 -173.003906 34.125 -171.148438 33.6875 -169.109375 C 32.082031 -164.066406 29.238281 -159.660156 25.15625 -155.890625 Z M 25.15625 -155.890625 "></path></g></g></g><g fill="#69696a" fill-opacity="1"><g transform="translate(1940.48065, 718.23815)"><g><path d="M 219.25 -100.921875 C 220.863281 -100.492188 220.835938 -98.207031 219.171875 -94.0625 C 217.503906 -89.925781 214.09375 -84.632812 208.9375 -78.1875 C 203.019531 -71.414062 193.207031 -63.757812 179.5 -55.21875 C 165.800781 -46.675781 149.953125 -38.859375 131.953125 -31.765625 C 113.953125 -24.671875 95.84375 -19.644531 77.625 -16.6875 C 59.40625 -13.726562 42.773438 -14.398438 27.734375 -18.703125 C 11.828125 -23.640625 2.691406 -34.007812 0.328125 -49.8125 C -0.859375 -58.84375 -0.269531 -67.710938 2.09375 -76.421875 C 5 -85.441406 9.566406 -93.390625 15.796875 -100.265625 C 22.035156 -107.148438 29.773438 -112.367188 39.015625 -115.921875 C 47.722656 -118.921875 56.75 -120.070312 66.09375 -119.375 C 75.445312 -118.675781 83.078125 -115.859375 88.984375 -110.921875 C 89.953125 -110.160156 90.4375 -109.082031 90.4375 -107.6875 C 90.4375 -106.289062 90.222656 -104.894531 89.796875 -103.5 C 88.617188 -99.414062 86.65625 -97.507812 83.90625 -97.78125 C 81.164062 -98.050781 78.023438 -99.097656 74.484375 -100.921875 C 71.898438 -102.316406 69.078125 -103.550781 66.015625 -104.625 C 62.953125 -105.695312 59.753906 -106.019531 56.421875 -105.59375 C 47.179688 -104.195312 39.5 -99.363281 33.375 -91.09375 C 28.425781 -84.207031 25.066406 -76.625 23.296875 -68.34375 C 21.523438 -60.070312 22.25 -52.609375 25.46875 -45.953125 C 29.988281 -37.453125 37.914062 -32.367188 49.25 -30.703125 C 60.59375 -29.046875 73.648438 -29.878906 88.421875 -33.203125 C 103.203125 -36.535156 118.171875 -41.316406 133.328125 -47.546875 C 148.484375 -53.785156 162.375 -60.398438 175 -67.390625 C 187.625 -74.378906 197.378906 -80.828125 204.265625 -86.734375 C 211.359375 -92.859375 215.492188 -96.890625 216.671875 -98.828125 C 217.421875 -99.578125 217.957031 -100.113281 218.28125 -100.4375 C 218.601562 -100.757812 218.925781 -100.921875 219.25 -100.921875 Z M 219.25 -100.921875 "></path></g></g></g><g fill="#69696a" fill-opacity="1"><g transform="translate(2166.908159, 718.23815)"><g><path d="M 47.71875 -58.6875 C 51.375 -53.957031 53.738281 -49.066406 54.8125 -44.015625 C 55.882812 -38.960938 56.285156 -33.476562 56.015625 -27.5625 C 55.753906 -21.65625 53.847656 -16.390625 50.296875 -11.765625 C 46.753906 -7.148438 40.84375 -4.359375 32.5625 -3.390625 C 24.289062 -2.742188 16.898438 -4.003906 10.390625 -7.171875 C 3.890625 -10.347656 -0.191406 -14.941406 -1.859375 -20.953125 C -3.523438 -26.972656 -1.507812 -34.015625 4.1875 -42.078125 C 7.945312 -46.585938 12.460938 -50.507812 17.734375 -53.84375 C 19.554688 -55.03125 21.4375 -56.320312 23.375 -57.71875 C 17.03125 -64.59375 11.007812 -71.628906 5.3125 -78.828125 C -0.375 -86.035156 -4.023438 -92.488281 -5.640625 -98.1875 C -7.359375 -104.738281 -6.253906 -110.914062 -2.328125 -116.71875 C 1.585938 -122.519531 8.382812 -125.90625 18.0625 -126.875 C 22.789062 -127.300781 27.222656 -127.054688 31.359375 -126.140625 C 35.492188 -125.234375 39.335938 -123.222656 42.890625 -120.109375 C 43.640625 -119.359375 44.175781 -118.523438 44.5 -117.609375 C 44.820312 -116.691406 44.660156 -115.535156 44.015625 -114.140625 C 42.828125 -111.992188 41.050781 -110.921875 38.6875 -110.921875 C 36.96875 -110.921875 35.300781 -111.132812 33.6875 -111.5625 C 31.96875 -112.3125 30.410156 -113.007812 29.015625 -113.65625 C 28.046875 -114.195312 27.132812 -114.679688 26.28125 -115.109375 C 23.164062 -116.285156 20.773438 -116.125 19.109375 -114.625 C 17.441406 -113.125 16.609375 -110.8125 16.609375 -107.6875 C 16.816406 -102.207031 19.070312 -96.347656 23.375 -90.109375 C 27.675781 -83.878906 31.921875 -78.132812 36.109375 -72.875 C 37.828125 -71.039062 39.28125 -69.265625 40.46875 -67.546875 C 41.644531 -66.367188 44.0625 -63.414062 47.71875 -58.6875 Z M 25.796875 -15.484375 C 28.910156 -15.691406 30.953125 -17.40625 31.921875 -20.625 C 32.890625 -23.851562 33.238281 -27.398438 32.96875 -31.265625 C 32.695312 -35.140625 32.457031 -38.046875 32.25 -39.984375 C 31.8125 -41.160156 31.054688 -41.910156 29.984375 -42.234375 C 28.910156 -42.554688 27.890625 -42.503906 26.921875 -42.078125 C 23.378906 -39.285156 20.773438 -35.738281 19.109375 -31.4375 C 17.441406 -27.132812 17.570312 -23.375 19.5 -20.15625 C 20.144531 -18.96875 21.003906 -17.941406 22.078125 -17.078125 C 23.160156 -16.222656 24.398438 -15.691406 25.796875 -15.484375 Z M 25.796875 -15.484375 "></path></g></g></g></svg>